<?xml version="1.0" encoding="utf-8"?>
<!-- Generator: Adobe Illustrator 15.0.2, SVG Export Plug-In . SVG Version: 6.00 Build 0)  -->
<!DOCTYPE svg PUBLIC "-//W3C//DTD SVG 1.1//EN" "http://www.w3.org/Graphics/SVG/1.1/DTD/svg11.dtd">
<svg version="1.1" id="Layer_1" xmlns="http://www.w3.org/2000/svg" xmlns:xlink="http://www.w3.org/1999/xlink" x="0px" y="0px"
	 width="1500.41px" height="48.13px" viewBox="0 0 1500.41 48.13" enable-background="new 0 0 1500.41 48.13" xml:space="preserve">
<g id="sunny-spells">
	<g>
		<path fill-rule="evenodd" clip-rule="evenodd" fill="#FFFF00" d="M120.55,9c-5.79,0-10.5,4.71-10.5,10.5s4.71,10.5,10.5,10.5
			s10.5-4.71,10.5-10.5S126.34,9,120.55,9z"/>
		<g>
			<path fill-rule="evenodd" clip-rule="evenodd" fill="#FFFF00" d="M120.55,0c-0.83,0-1.5,0.67-1.5,1.5v3c0,0.83,0.67,1.5,1.5,1.5
				c0.83,0,1.5-0.67,1.5-1.5v-3C122.05,0.67,121.38,0,120.55,0z"/>
			<path fill-rule="evenodd" clip-rule="evenodd" fill="#FFFF00" d="M120.55,33c-0.83,0-1.5,0.67-1.5,1.5v3c0,0.83,0.67,1.5,1.5,1.5
				c0.83,0,1.5-0.67,1.5-1.5v-3C122.05,33.67,121.38,33,120.55,33z"/>
		</g>
		<g>
			<path fill-rule="evenodd" clip-rule="evenodd" fill="#FFFF00" d="M134.34,5.71c-0.59-0.59-1.54-0.59-2.12,0l-2.12,2.12
				c-0.59,0.59-0.59,1.54,0,2.12s1.54,0.59,2.12,0l2.12-2.12C134.93,7.25,134.93,6.3,134.34,5.71z"/>
			<path fill-rule="evenodd" clip-rule="evenodd" fill="#FFFF00" d="M111.01,29.05c-0.59-0.59-1.54-0.59-2.12,0l-2.12,2.12
				c-0.59,0.59-0.59,1.54,0,2.12s1.54,0.59,2.12,0l2.12-2.12C111.59,30.58,111.59,29.63,111.01,29.05z"/>
		</g>
		<g>
			<path fill-rule="evenodd" clip-rule="evenodd" fill="#FFFF00" d="M101.05,19.5c0,0.83,0.67,1.5,1.5,1.5h3
				c0.83,0,1.5-0.67,1.5-1.5c0-0.83-0.67-1.5-1.5-1.5h-3C101.72,18,101.05,18.67,101.05,19.5z"/>
			<path fill-rule="evenodd" clip-rule="evenodd" fill="#FFFF00" d="M134.05,19.5c0,0.83,0.67,1.5,1.5,1.5h3
				c0.83,0,1.5-0.67,1.5-1.5c0-0.83-0.67-1.5-1.5-1.5h-3C134.72,18,134.05,18.67,134.05,19.5z"/>
		</g>
		<g>
			<path fill-rule="evenodd" clip-rule="evenodd" fill="#FFFF00" d="M106.76,5.71c-0.59,0.59-0.59,1.54,0,2.12l2.12,2.12
				c0.59,0.59,1.54,0.59,2.12,0s0.59-1.54,0-2.12l-2.12-2.12C108.3,5.12,107.35,5.12,106.76,5.71z"/>
			<path fill-rule="evenodd" clip-rule="evenodd" fill="#FFFF00" d="M130.1,29.04c-0.59,0.59-0.59,1.54,0,2.12l2.12,2.12
				c0.59,0.59,1.54,0.59,2.12,0s0.59-1.54,0-2.12l-2.12-2.12C131.63,28.46,130.69,28.46,130.1,29.04z"/>
		</g>
	</g>
	<path fill-rule="evenodd" clip-rule="evenodd" fill="#C6C6C6" d="M137.55,22c-0.5,0-0.99,0.04-1.48,0.11
		c-2.8-3.82-7.22-6.11-12.02-6.11s-9.22,2.29-12.02,6.11c-0.49-0.07-0.98-0.11-1.48-0.11c-5.79,0-10.5,4.71-10.5,10.5
		s4.71,10.5,10.5,10.5c1.28,0,2.54-0.23,3.72-0.69c2.71,2.37,6.17,3.69,9.78,3.69c3.61,0,7.06-1.32,9.78-3.69
		c1.18,0.45,2.44,0.69,3.72,0.69c5.79,0,10.5-4.71,10.5-10.5S143.34,22,137.55,22z"/>
</g>
<g id="heavy-clouds">
	<path fill="#C6C6C6" d="M1106.04,22.33c1.37,1.77,2.22,3.97,2.22,6.38c0,5.79-4.71,10.5-10.5,10.5c-1.28,0-2.54-0.23-3.72-0.69
		c-2.71,2.37-6.16,3.69-9.78,3.69c-3.61,0-7.06-1.32-9.78-3.69c-1.18,0.45-2.44,0.69-3.72,0.69c-5.79,0-10.5-4.71-10.5-10.5
		s4.71-10.5,10.5-10.5c0.5,0,0.99,0.04,1.48,0.11c0.05-0.07,0.11-0.13,0.16-0.2c-0.08-0.46-0.14-0.93-0.14-1.41
		c0-4.61,3.75-8.36,8.36-8.36c0.23,0,0.45,0.01,0.67,0.03c2.17-2.71,5.44-4.31,8.97-4.31c3.54,0,6.8,1.61,8.97,4.31
		c0.22-0.02,0.45-0.03,0.67-0.03c4.61,0,8.36,3.75,8.36,8.36C1108.26,18.88,1107.41,20.84,1106.04,22.33z"/>
</g>
<g id="mostly-sunny">
	<path fill-rule="evenodd" clip-rule="evenodd" fill="#FFFF00" d="M19.5,14C13.71,14,9,18.71,9,24.5S13.71,35,19.5,35
		S30,30.29,30,24.5S25.29,14,19.5,14z"/>
	<g>
		<path fill-rule="evenodd" clip-rule="evenodd" fill="#FFFF00" d="M19.5,5C18.67,5,18,5.67,18,6.5v3c0,0.83,0.67,1.5,1.5,1.5
			c0.83,0,1.5-0.67,1.5-1.5v-3C21,5.67,20.33,5,19.5,5z"/>
		<path fill-rule="evenodd" clip-rule="evenodd" fill="#FFFF00" d="M19.5,38c-0.83,0-1.5,0.67-1.5,1.5v3c0,0.83,0.67,1.5,1.5,1.5
			c0.83,0,1.5-0.67,1.5-1.5v-3C21,38.67,20.33,38,19.5,38z"/>
	</g>
	<g>
		<path fill-rule="evenodd" clip-rule="evenodd" fill="#FFFF00" d="M33.29,10.71c-0.59-0.59-1.54-0.59-2.12,0l-2.12,2.12
			c-0.59,0.59-0.59,1.54,0,2.12s1.54,0.59,2.12,0l2.12-2.12C33.87,12.25,33.87,11.3,33.29,10.71z"/>
		<path fill-rule="evenodd" clip-rule="evenodd" fill="#FFFF00" d="M9.95,34.05c-0.59-0.59-1.54-0.59-2.12,0l-2.12,2.12
			c-0.59,0.59-0.59,1.54,0,2.12s1.54,0.59,2.12,0l2.12-2.12C10.54,35.58,10.54,34.63,9.95,34.05z"/>
	</g>
	<g>
		<path fill-rule="evenodd" clip-rule="evenodd" fill="#FFFF00" d="M0,24.5C0,25.33,0.67,26,1.5,26h3C5.33,26,6,25.33,6,24.5
			C6,23.67,5.33,23,4.5,23h-3C0.67,23,0,23.67,0,24.5z"/>
		<path fill-rule="evenodd" clip-rule="evenodd" fill="#FFFF00" d="M33,24.5c0,0.83,0.67,1.5,1.5,1.5h3c0.83,0,1.5-0.67,1.5-1.5
			c0-0.83-0.67-1.5-1.5-1.5h-3C33.67,23,33,23.67,33,24.5z"/>
	</g>
	<g>
		<path fill-rule="evenodd" clip-rule="evenodd" fill="#FFFF00" d="M5.71,10.71c-0.59,0.59-0.59,1.54,0,2.12l2.12,2.12
			c0.59,0.59,1.54,0.59,2.12,0s0.59-1.54,0-2.12l-2.12-2.12C7.24,10.12,6.29,10.12,5.71,10.71z"/>
		<path fill-rule="evenodd" clip-rule="evenodd" fill="#FFFF00" d="M29.05,34.04c-0.59,0.59-0.59,1.54,0,2.12l2.12,2.12
			c0.59,0.59,1.54,0.59,2.12,0s0.59-1.54,0-2.12l-2.12-2.12C30.58,33.46,29.63,33.46,29.05,34.04z"/>
	</g>
</g>
<g id="chance-of-storm">
	<path fill-rule="evenodd" clip-rule="evenodd" fill="#FFFF00" d="M230.26,30.37L227,33.63l3,3l-3,9l9-9l-3-3l1.03-3.09l-3.79-0.18
		C230.25,30.37,230.25,30.37,230.26,30.37z"/>
	<path fill-rule="evenodd" clip-rule="evenodd" fill="#C6C6C6" d="M245,7c-0.5,0-0.99,0.04-1.48,0.11C240.72,3.29,236.3,1,231.5,1
		s-9.22,2.29-12.02,6.11C218.99,7.04,218.5,7,218,7c-5.79,0-10.5,4.71-10.5,10.5S212.21,28,218,28c1.28,0,2.54-0.23,3.72-0.69
		c2.01,1.75,4.43,2.92,7.01,3.42l3.79,0.18l0-0.01c3.23-0.23,6.29-1.46,8.75-3.59c1.18,0.45,2.44,0.69,3.72,0.69
		c5.79,0,10.5-4.71,10.5-10.5S250.79,7,245,7z"/>
</g>
<g id="thunderstorm">
	<path fill="#FFFF00" d="M1188.41,37.63l-2.15,1.43l3,3l-3,6l9-6l-3-3l0.44-0.88l-4.33-0.56
		C1188.39,37.62,1188.4,37.63,1188.41,37.63z"/>
	<path fill="#C6C6C6" d="M1216.26,12.71c0-4.61-3.75-8.36-8.36-8.36c-0.22,0-0.45,0.01-0.67,0.03c-2.17-2.7-5.44-4.31-8.97-4.31
		c-3.53,0-6.8,1.61-8.97,4.31c-0.22-0.02-0.45-0.03-0.67-0.03c-4.61,0-8.36,3.75-8.36,8.36c0,0.48,0.06,0.95,0.14,1.41
		c-0.05,0.07-0.11,0.13-0.16,0.2c-0.49-0.07-0.98-0.11-1.48-0.11c-5.79,0-10.5,4.71-10.5,10.5s4.71,10.5,10.5,10.5
		c1.28,0,2.54-0.23,3.72-0.69c1.71,1.49,3.74,2.51,5.89,3.1l4.33,0.56l0.01-0.01c3.45-0.11,6.73-1.38,9.33-3.65
		c1.18,0.45,2.44,0.69,3.72,0.69c5.79,0,10.5-4.71,10.5-10.5c0-2.41-0.85-4.6-2.22-6.38C1215.41,16.84,1216.26,14.88,1216.26,12.71z
		"/>
</g>
<g id="chance-of-rain">
	<path fill-rule="evenodd" clip-rule="evenodd" fill="#C6C6C6" d="M353.81,9.13c-0.5,0-0.99,0.04-1.48,0.11
		c-2.8-3.82-7.22-6.11-12.02-6.11s-9.22,2.29-12.02,6.11c-0.49-0.07-0.98-0.11-1.48-0.11c-5.79,0-10.5,4.71-10.5,10.5
		s4.71,10.5,10.5,10.5c1.28,0,2.54-0.23,3.72-0.69c2.71,2.37,6.17,3.69,9.78,3.69c3.61,0,7.06-1.32,9.78-3.69
		c1.18,0.45,2.44,0.69,3.72,0.69c5.79,0,10.5-4.71,10.5-10.5S359.6,9.13,353.81,9.13z"/>
	<path fill-rule="evenodd" clip-rule="evenodd" fill="#000DFF" d="M337.31,42.13c0,1.66,1.34,3,3,3s3-1.34,3-3s-3-6-3-6
		S337.31,40.47,337.31,42.13z"/>
</g>
<g id="heavy-rain">
	<path fill-rule="evenodd" clip-rule="evenodd" fill="#C6C6C6" d="M463,6.13c-0.5,0-0.99,0.04-1.48,0.11
		c-2.8-3.82-7.22-6.11-12.02-6.11s-9.22,2.29-12.02,6.11c-0.49-0.07-0.98-0.11-1.48-0.11c-5.79,0-10.5,4.71-10.5,10.5
		s4.71,10.5,10.5,10.5c1.28,0,2.54-0.23,3.72-0.69c2.71,2.37,6.17,3.69,9.78,3.69c3.61,0,7.06-1.32,9.78-3.69
		c1.18,0.45,2.44,0.69,3.72,0.69c5.79,0,10.5-4.71,10.5-10.5S468.79,6.13,463,6.13z"/>
	<path fill-rule="evenodd" clip-rule="evenodd" fill="#000DFF" d="M446.59,45.13c0,1.66,1.34,3,3,3s3-1.34,3-3s-3-6-3-6
		S446.59,43.47,446.59,45.13z"/>
	<path fill-rule="evenodd" clip-rule="evenodd" fill="#000DFF" d="M458.5,42.13c0,1.66,1.34,3,3,3s3-1.34,3-3s-3-6-3-6
		S458.5,40.47,458.5,42.13z"/>
	<path fill-rule="evenodd" clip-rule="evenodd" fill="#000DFF" d="M434.5,36.13c0,1.66,1.34,3,3,3s3-1.34,3-3s-3-6-3-6
		S434.5,34.47,434.5,36.13z"/>
</g>
<path fill-rule="evenodd" clip-rule="evenodd" fill="#C6C6C6" d="M572.41,13.63c-2.25-2.3-5.36-3.63-8.6-3.63
	c-3.24,0-6.35,1.33-8.6,3.63c-4.95,0.23-8.91,4.33-8.91,9.34c0,5.15,4.19,9.34,9.35,9.34c0.54,0,1.09-0.05,1.62-0.14
	c1.95,1.27,4.21,1.96,6.54,1.96c2.33,0,4.6-0.69,6.54-1.96c0.54,0.09,1.07,0.14,1.62,0.14c5.15,0,9.34-4.19,9.34-9.34
	C581.31,17.96,577.36,13.87,572.41,13.63z"/>
<path fill-rule="evenodd" clip-rule="evenodd" fill="#C6C6C6" d="M546.81,31.06h-12c-0.83,0-1.5,0.67-1.5,1.5s0.67,1.5,1.5,1.5h12
	c0.83,0,1.5-0.67,1.5-1.5S547.64,31.06,546.81,31.06z"/>
<path fill-rule="evenodd" clip-rule="evenodd" fill="#C6C6C6" d="M534.81,28.06h6c0.83,0,1.5-0.67,1.5-1.5s-0.67-1.5-1.5-1.5h-6
	c-0.83,0-1.5,0.67-1.5,1.5S533.98,28.06,534.81,28.06z"/>
<path fill-rule="evenodd" clip-rule="evenodd" fill="#C6C6C6" d="M537.81,22.06h6c0.83,0,1.5-0.67,1.5-1.5s-0.67-1.5-1.5-1.5h-6
	c-0.83,0-1.5,0.67-1.5,1.5S536.98,22.06,537.81,22.06z"/>
<g id="windy-rainy">
	<path fill-rule="evenodd" clip-rule="evenodd" fill="#C6C6C6" d="M676.69,6.7c-2.25-2.3-5.36-3.64-8.6-3.64
		c-3.24,0-6.35,1.33-8.59,3.64c-4.95,0.23-8.91,4.33-8.91,9.33c0,5.15,4.19,9.35,9.35,9.35c0.55,0,1.09-0.05,1.62-0.14
		c1.94,1.27,4.21,1.95,6.54,1.95c2.33,0,4.6-0.69,6.54-1.95c0.54,0.09,1.07,0.14,1.62,0.14c5.15,0,9.34-4.19,9.34-9.35
		C685.6,11.03,681.64,6.93,676.69,6.7z"/>
	<path fill-rule="evenodd" clip-rule="evenodd" fill="#C6C6C6" d="M651.1,24.13h-12c-0.83,0-1.5,0.67-1.5,1.5s0.67,1.5,1.5,1.5h12
		c0.83,0,1.5-0.67,1.5-1.5S651.92,24.13,651.1,24.13z"/>
	<path fill-rule="evenodd" clip-rule="evenodd" fill="#C6C6C6" d="M639.1,21.13h6c0.83,0,1.5-0.67,1.5-1.5s-0.67-1.5-1.5-1.5h-6
		c-0.83,0-1.5,0.67-1.5,1.5S638.27,21.13,639.1,21.13z"/>
	<path fill-rule="evenodd" clip-rule="evenodd" fill="#C6C6C6" d="M642.1,15.13h6c0.83,0,1.5-0.67,1.5-1.5s-0.67-1.5-1.5-1.5h-6
		c-0.83,0-1.5,0.67-1.5,1.5S641.27,15.13,642.1,15.13z"/>
	<path fill-rule="evenodd" clip-rule="evenodd" fill="#000DFF" d="M658.6,36.06c0,1.66,1.34,3,3,3s3-1.34,3-3s-3-6-3-6
		S658.6,34.41,658.6,36.06z"/>
	<path fill-rule="evenodd" clip-rule="evenodd" fill="#000DFF" d="M670.6,42.06c0,1.66,1.34,3,3,3s3-1.34,3-3s-3-6-3-6
		S670.6,40.41,670.6,42.06z"/>
</g>
<g id="heavy-snow">
	<path fill-rule="evenodd" clip-rule="evenodd" fill="#33CCFF" d="M873.83,41.66l-1.69-0.97c0.05-0.29,0.09-0.59,0.09-0.9
		s-0.04-0.61-0.09-0.9l1.69-0.97c0.79-0.46,1.06-1.47,0.61-2.26c-0.46-0.79-1.47-1.07-2.26-0.61l-1.71,0.98
		c-0.46-0.39-0.97-0.69-1.55-0.9v-1.96c0-0.92-0.74-1.66-1.66-1.66s-1.66,0.74-1.66,1.66v1.96c-0.57,0.21-1.09,0.51-1.55,0.9
		l-1.7-0.98c-0.79-0.46-1.81-0.19-2.27,0.61c-0.46,0.79-0.18,1.8,0.61,2.26l1.68,0.97c-0.05,0.29-0.09,0.59-0.09,0.9
		s0.04,0.61,0.09,0.9l-1.68,0.97c-0.79,0.46-1.07,1.48-0.61,2.27s1.47,1.06,2.26,0.6l1.7-0.98c0.46,0.39,0.97,0.69,1.55,0.9v1.96
		c0,0.91,0.74,1.65,1.66,1.65s1.66-0.74,1.66-1.65v-1.96c0.57-0.21,1.1-0.51,1.55-0.9l1.7,0.98c0.79,0.46,1.8,0.19,2.26-0.6
		S874.62,42.12,873.83,41.66z M867.26,41.44c-0.91,0-1.66-0.74-1.66-1.66s0.74-1.65,1.66-1.65s1.66,0.74,1.66,1.65
		S868.18,41.44,867.26,41.44z"/>
	<path fill-rule="evenodd" clip-rule="evenodd" fill="#12D2FF" d="M887.72,37.21l-1.13-0.3c-0.03-0.36-0.11-0.7-0.27-1.03l0.82-0.82
		c0.39-0.39,0.38-1.01,0-1.39c-0.38-0.38-1-0.39-1.39,0l-0.82,0.82c-0.32-0.15-0.67-0.24-1.03-0.27l-0.3-1.13
		c-0.14-0.52-0.68-0.84-1.21-0.7c-0.53,0.14-0.83,0.68-0.7,1.21l0.3,1.12c-0.15,0.1-0.29,0.21-0.42,0.34
		c-0.13,0.13-0.24,0.27-0.34,0.42l-1.12-0.3c-0.53-0.14-1.07,0.18-1.21,0.7c-0.14,0.53,0.18,1.06,0.7,1.21l1.12,0.3
		c0.03,0.35,0.12,0.7,0.28,1.03l-0.83,0.83c-0.38,0.38-0.38,1.01,0,1.39c0.38,0.38,1,0.39,1.39,0l0.83-0.83
		c0.32,0.16,0.67,0.25,1.03,0.28l0.3,1.13c0.14,0.53,0.68,0.84,1.21,0.7c0.52-0.14,0.84-0.68,0.7-1.21l-0.3-1.12
		c0.14-0.1,0.29-0.21,0.42-0.34c0.13-0.13,0.24-0.28,0.34-0.42l1.12,0.3c0.53,0.14,1.07-0.17,1.21-0.7
		C888.55,37.9,888.24,37.36,887.72,37.21z M884.35,37.84c-0.39,0.39-1.01,0.38-1.39,0c-0.38-0.38-0.38-1.01,0-1.39
		c0.38-0.38,1.01-0.38,1.39,0C884.74,36.83,884.74,37.46,884.35,37.84z"/>
	<path fill-rule="evenodd" clip-rule="evenodd" fill="#12D2FF" d="M854.41,32.17l-1.11,0.3c-0.1-0.14-0.21-0.28-0.34-0.42
		c-0.13-0.13-0.27-0.24-0.42-0.34l0.3-1.12c0.14-0.53-0.17-1.07-0.69-1.21c-0.53-0.14-1.07,0.17-1.21,0.7l-0.3,1.13
		c-0.36,0.03-0.7,0.12-1.03,0.27l-0.83-0.82c-0.39-0.39-1.01-0.38-1.39,0c-0.38,0.38-0.38,1.01,0,1.39l0.82,0.82
		c-0.15,0.33-0.24,0.67-0.27,1.03l-1.13,0.3c-0.53,0.14-0.84,0.68-0.7,1.21c0.14,0.52,0.68,0.83,1.21,0.7l1.11-0.3
		c0.1,0.15,0.21,0.29,0.35,0.42c0.13,0.13,0.27,0.24,0.42,0.34l-0.3,1.12c-0.14,0.53,0.17,1.07,0.7,1.21
		c0.53,0.14,1.06-0.17,1.2-0.7l0.3-1.12c0.36-0.03,0.7-0.12,1.03-0.28l0.82,0.82c0.38,0.39,1,0.38,1.39,0c0.38-0.38,0.39-1,0-1.39
		l-0.83-0.83c0.16-0.32,0.25-0.67,0.28-1.03l1.13-0.3c0.52-0.14,0.83-0.68,0.69-1.21C855.48,32.35,854.94,32.04,854.41,32.17z
		 M851.57,34.84c-0.38,0.38-1.01,0.38-1.39,0c-0.38-0.38-0.38-1.01,0-1.39c0.39-0.38,1.01-0.38,1.39,0S851.95,34.46,851.57,34.84z"
		/>
	<path fill-rule="evenodd" clip-rule="evenodd" fill="#C6C6C6" d="M891.26,16.56c0-5.79-4.71-10.5-10.5-10.5
		c-0.5,0-0.99,0.04-1.48,0.11c-2.8-3.82-7.22-6.11-12.02-6.11s-9.22,2.29-12.02,6.11c-0.49-0.07-0.98-0.11-1.48-0.11
		c-5.79,0-10.5,4.71-10.5,10.5s4.71,10.5,10.5,10.5c1.28,0,2.54-0.23,3.72-0.69c2.71,2.37,6.17,3.69,9.78,3.69
		c3.61,0,7.06-1.32,9.78-3.69c1.18,0.45,2.44,0.69,3.72,0.69C886.55,27.06,891.26,22.35,891.26,16.56z"/>
</g>
<g id="chance-of-snow">
	<path fill-rule="evenodd" clip-rule="evenodd" fill="#33CCFF" d="M765.83,41.66l-1.69-0.97c0.05-0.29,0.09-0.59,0.09-0.9
		s-0.04-0.61-0.09-0.9l1.69-0.97c0.79-0.46,1.06-1.47,0.61-2.26c-0.46-0.79-1.47-1.07-2.26-0.61l-1.71,0.98
		c-0.46-0.39-0.97-0.69-1.55-0.9v-1.96c0-0.92-0.74-1.66-1.66-1.66s-1.66,0.74-1.66,1.66v1.96c-0.57,0.21-1.09,0.51-1.55,0.9
		l-1.7-0.98c-0.79-0.46-1.81-0.19-2.27,0.61c-0.46,0.79-0.18,1.8,0.61,2.26l1.68,0.97c-0.05,0.29-0.09,0.59-0.09,0.9
		s0.04,0.61,0.09,0.9l-1.68,0.97c-0.79,0.46-1.07,1.48-0.61,2.27s1.47,1.06,2.26,0.6l1.7-0.98c0.46,0.39,0.97,0.69,1.55,0.9v1.96
		c0,0.91,0.74,1.65,1.66,1.65s1.66-0.74,1.66-1.65v-1.96c0.57-0.21,1.1-0.51,1.55-0.9l1.7,0.98c0.79,0.46,1.8,0.19,2.26-0.6
		S766.62,42.12,765.83,41.66z M759.26,41.44c-0.91,0-1.66-0.74-1.66-1.66s0.74-1.65,1.66-1.65s1.66,0.74,1.66,1.65
		S760.18,41.44,759.26,41.44z"/>
	<path fill-rule="evenodd" clip-rule="evenodd" fill="#C6C6C6" d="M772.76,6.06c-0.5,0-0.99,0.04-1.48,0.11
		c-2.8-3.82-7.22-6.11-12.02-6.11s-9.22,2.29-12.02,6.11c-0.49-0.07-0.98-0.11-1.48-0.11c-5.79,0-10.5,4.71-10.5,10.5
		s4.71,10.5,10.5,10.5c1.28,0,2.54-0.23,3.72-0.69c2.71,2.37,6.17,3.69,9.78,3.69c3.61,0,7.06-1.32,9.78-3.69
		c1.18,0.45,2.44,0.69,3.72,0.69c5.79,0,10.5-4.71,10.5-10.5S778.55,6.06,772.76,6.06z"/>
</g>
<g id="hail">
	<path fill="#C6C6C6" d="M989.43,6.06c-0.5,0-0.99,0.04-1.48,0.11c-2.8-3.82-7.22-6.11-12.02-6.11s-9.22,2.29-12.02,6.11
		c-0.49-0.07-0.98-0.11-1.48-0.11c-5.79,0-10.5,4.71-10.5,10.5s4.71,10.5,10.5,10.5c1.28,0,2.54-0.23,3.72-0.69
		c2.71,2.37,6.17,3.69,9.78,3.69c3.61,0,7.06-1.32,9.78-3.69c1.18,0.45,2.44,0.69,3.72,0.69c5.79,0,10.5-4.71,10.5-10.5
		S995.22,6.06,989.43,6.06z"/>
	<circle fill="#000DFF" cx="960.93" cy="33.06" r="3"/>
	<circle fill="#000DFF" cx="975.93" cy="36.06" r="3"/>
	<circle fill="#000DFF" cx="990.93" cy="33.06" r="3"/>
	<circle fill="#000DFF" cx="984.93" cy="45.06" r="3"/>
	<circle fill="#000DFF" cx="966.93" cy="45.06" r="3"/>
</g>
<g>
	<path fill-rule="evenodd" clip-rule="evenodd" fill="#C6C6C6" d="M1277.24,15.92h34.73c1.06,0,1.93-0.86,1.93-1.93
		s-0.86-1.93-1.93-1.93h-34.73c-1.06,0-1.93,0.86-1.93,1.93S1276.18,15.92,1277.24,15.92z"/>
	<path fill-rule="evenodd" clip-rule="evenodd" fill="#C6C6C6" d="M1311.97,19.78h-34.73c-1.06,0-1.93,0.86-1.93,1.93
		c0,1.06,0.86,1.93,1.93,1.93h34.73c1.06,0,1.93-0.86,1.93-1.93C1313.9,20.65,1313.03,19.78,1311.97,19.78z"/>
	<path fill-rule="evenodd" clip-rule="evenodd" fill="#C6C6C6" d="M1311.97,27.5h-34.73c-1.06,0-1.93,0.86-1.93,1.93
		s0.86,1.93,1.93,1.93h34.73c1.06,0,1.93-0.86,1.93-1.93S1313.03,27.5,1311.97,27.5z"/>
	<path fill-rule="evenodd" clip-rule="evenodd" fill="#C6C6C6" d="M1311.97,35.21h-34.73c-1.06,0-1.93,0.86-1.93,1.93
		s0.86,1.93,1.93,1.93h34.73c1.06,0,1.93-0.86,1.93-1.93S1313.03,35.21,1311.97,35.21z"/>
</g>
<path fill="#3FE0FF" d="M1399.92,28.46l-3.06-1.77c0.1-0.53,0.16-1.07,0.16-1.63c0-0.56-0.07-1.11-0.17-1.64l3.06-1.77
	c1.44-0.83,1.93-2.67,1.1-4.1c-0.83-1.44-2.66-1.93-4.1-1.1l-3.09,1.78c-0.83-0.7-1.77-1.26-2.81-1.63v-3.55c0-1.66-1.34-3-3-3
	c-1.66,0-3,1.34-3,3v3.55c-1.04,0.37-1.98,0.92-2.81,1.63l-3.08-1.78c-1.44-0.83-3.27-0.34-4.1,1.1c-0.83,1.43-0.33,3.27,1.1,4.1
	l3.05,1.76c-0.1,0.53-0.16,1.08-0.16,1.64c0,0.56,0.06,1.1,0.16,1.63l-3.05,1.76c-1.44,0.83-1.93,2.67-1.1,4.1
	c0.83,1.43,2.66,1.92,4.1,1.1l3.08-1.78c0.83,0.7,1.77,1.26,2.81,1.63v3.55c0,1.66,1.34,3,3,3c1.66,0,3-1.34,3-3v-3.55
	c1.04-0.37,1.99-0.93,2.81-1.63l3.09,1.78c1.44,0.83,3.27,0.33,4.1-1.1C1401.84,31.13,1401.35,29.29,1399.92,28.46z M1385.02,25.06
	c0-1.66,1.34-3,3-3c1.66,0,3,1.34,3,3s-1.34,3-3,3C1386.36,28.06,1385.02,26.72,1385.02,25.06z"/>
<g>
	<path fill="#C6C6C6" d="M1465.42,23.05v10.42h-3.29V16.93h2.98l3.84,5.67l3.14,4.8h0.1V16.93h3.29v16.54h-2.99l-4.19-6.24
		l-2.73-4.18H1465.42z"/>
	<path fill="#C6C6C6" d="M1479.05,34.48h-2.42l6.05-18.41h2.45L1479.05,34.48z"/>
	<path fill="#C6C6C6" d="M1495.82,30.06h-5.76l-1.08,3.41h-3.5l5.81-16.54h3.36l5.76,16.54h-3.58L1495.82,30.06z M1490.95,27.3h3.98
		l-0.65-2.11l-1.3-4.37h-0.09l-1.28,4.3L1490.95,27.3z"/>
</g>
</svg>
